<?xml version="1.0" encoding="UTF-8"?>
<svg id="_Слой_1" data-name="Слой 1" xmlns="http://www.w3.org/2000/svg" viewBox="0 0 134.58 107.52">
  <path d="M67.7,107.52c-5.29,0-10.81-2.59-15.58-7.32-4.22-4.05-8.2-8.41-11.91-12.53-6.91-7.71-14.65-15.04-22.14-22.12-3.88-3.67-7.89-7.46-11.74-11.27C1.58,49.54-.56,44.36.13,39.28c.75-5.5,3.71-9.63,8.13-11.33,4.66-1.8,10.16-.61,14.71,3.19l.26.22c7.28,6.72,14.2,14,20.89,21.03,4.09,4.3,8.32,8.75,12.56,13l.07.07c6.79,7.28,10.8,8.49,15.33,4.65,4.13-3.48,7.69-7.41,11.46-11.57,2.63-2.9,5.34-5.9,8.24-8.69,6.21-6.06,12.44-12.07,17.7-17.16,3.92-3.91,8.14-5.73,12.18-5.25,4.52.43,8.94,3.35,11.28,7.43,3.08,5.22,1.77,11.64-3.52,17.16-4.03,4.18-8.23,8.31-12.28,12.3-6.35,6.24-12.91,12.7-18.9,19.42l-.52.59c-3.13,3.52-6.36,7.17-9.61,10.65l-.6.64c-4.92,5.25-11.05,11.79-19.58,11.9-.08,0-.16,0-.23,0ZM12.74,33.05c-.82,0-1.61.14-2.34.42-2.38.92-3.94,3.26-4.39,6.6-.43,3.22,1.08,6.58,4.5,9.99,3.8,3.75,7.78,7.52,11.64,11.17,7.57,7.16,15.41,14.57,22.48,22.46,3.63,4.03,7.53,8.3,11.64,12.25,2.18,2.16,6.52,5.7,11.59,5.64,6.01-.07,10.96-5.36,15.33-10.02l.6-.64c3.19-3.42,6.4-7.03,9.5-10.53l.53-.59c6.12-6.87,12.75-13.4,19.17-19.71,4.03-3.96,8.19-8.06,12.16-12.18,1.6-1.67,5.07-6,2.66-10.07-1.39-2.43-4.15-4.27-6.74-4.51h-.1c-2.74-.35-5.5,1.75-7.33,3.58-5.29,5.11-11.51,11.12-17.73,17.18-2.77,2.67-5.41,5.59-7.97,8.42-3.74,4.13-7.6,8.39-12.03,12.12-10.41,8.83-19.53-.89-23.46-5.1-4.29-4.29-8.53-8.75-12.63-13.07-6.6-6.94-13.42-14.12-20.53-20.68l-.1-.08c-2.07-1.74-4.36-2.66-6.46-2.66Z"/>
  <path d="M65.51,60.27c-3.96,0-8.11-1.94-11.68-5.49-3.16-3.03-6.15-6.3-8.93-9.39-5.18-5.78-10.98-11.27-16.6-16.58-2.91-2.75-5.91-5.59-8.8-8.45-3.56-3.55-5.16-7.43-4.64-11.24.56-4.12,2.78-7.22,6.1-8.5,3.49-1.35,7.61-.46,11.02,2.39l.19.16c5.46,5.04,10.64,10.49,15.66,15.77,3.06,3.22,6.23,6.56,9.42,9.74l.05.06c5.09,5.46,8.09,6.37,11.49,3.49,3.1-2.61,5.77-5.55,8.59-8.67,1.97-2.17,4-4.42,6.18-6.52,4.66-4.54,9.32-9.05,13.27-12.86,2.94-2.93,6.1-4.3,9.13-3.93,3.39.32,6.71,2.51,8.46,5.57,2.31,3.91,1.33,8.73-2.64,12.86-3.02,3.14-6.17,6.23-9.21,9.22-4.76,4.68-9.68,9.52-14.16,14.56l-.39.44c-2.34,2.64-4.77,5.37-7.2,7.98l-.45.48c-3.69,3.94-8.29,8.84-14.68,8.92-.06,0-.12,0-.17,0ZM24.31,4.45c-.61,0-1.2.1-1.76.32-1.78.69-2.95,2.44-3.29,4.95-.33,2.41.81,4.93,3.37,7.49,2.85,2.81,5.84,5.64,8.73,8.37,5.68,5.37,11.55,10.92,16.85,16.84,2.72,3.02,5.64,6.22,8.73,9.18,1.63,1.62,4.89,4.28,8.69,4.23,4.5-.05,8.22-4.02,11.49-7.51l.45-.48c2.39-2.56,4.8-5.27,7.12-7.89l.4-.45c4.59-5.15,9.56-10.04,14.37-14.77,3.02-2.97,6.14-6.04,9.12-9.13,1.2-1.25,3.8-4.5,2-7.55-1.04-1.82-3.11-3.2-5.05-3.38h-.07c-2.05-.26-4.12,1.31-5.5,2.68-3.97,3.83-8.63,8.34-13.29,12.88-2.07,2-4.06,4.19-5.98,6.31-2.8,3.09-5.7,6.29-9.02,9.09-7.8,6.62-14.64-.67-17.58-3.82-3.21-3.22-6.39-6.56-9.47-9.8-4.95-5.2-10.06-10.58-15.39-15.5l-.07-.06c-1.55-1.3-3.27-1.99-4.84-1.99Z"/>
</svg>